<?xml version="1.0" encoding="UTF-8"?>
<svg id="Layer_2" data-name="Layer 2" xmlns="http://www.w3.org/2000/svg" viewBox="0 0 266.44 46.99">
  <defs>
    <style>
      .cls-1 {
        fill: #fafaf9;
        stroke-width: 0px;
      }
    </style>
  </defs>
  <g id="Layer_1-2" data-name="Layer 1">
    <g>
      <g>
        <g>
          <rect class="cls-1" x="64.55" y="7.41" width="9.55" height="32.17"/>
          <rect class="cls-1" x="87.18" y="7.41" width="9.55" height="32.17"/>
          <rect class="cls-1" x="75.87" y="18.72" width="9.55" height="20.86"/>
        </g>
        <g>
          <polygon class="cls-1" points="119.35 30.04 119.35 18.72 109.81 18.72 109.81 30.04 104.15 30.04 104.15 39.58 125.01 39.58 125.01 30.04 119.35 30.04"/>
          <rect class="cls-1" x="104.15" y="7.41" width="20.86" height="9.55"/>
        </g>
        <polygon class="cls-1" points="138.09 7.41 138.09 13.06 132.44 13.06 132.44 33.92 138.09 33.92 138.09 39.58 158.95 39.58 158.95 30.04 141.98 30.04 141.98 16.95 158.95 16.95 158.95 7.41 138.09 7.41"/>
        <g>
          <polygon class="cls-1" points="187.24 30.04 187.24 24.38 181.58 24.38 181.58 18.72 175.93 18.72 175.93 7.41 166.38 7.41 166.38 39.58 175.93 39.58 175.93 28.27 177.69 28.27 177.69 33.92 183.35 33.92 183.35 39.58 192.9 39.58 192.9 30.04 187.24 30.04"/>
          <rect class="cls-1" x="183.35" y="7.41" width="9.55" height="9.55"/>
        </g>
        <g>
          <rect class="cls-1" x="200.32" y="30.04" width="26.52" height="9.55"/>
          <rect class="cls-1" x="200.32" y="18.72" width="26.52" height="9.55"/>
          <rect class="cls-1" x="200.32" y="7.41" width="26.52" height="9.55"/>
        </g>
        <polygon class="cls-1" points="260.78 13.06 260.78 7.41 234.26 7.41 234.26 39.58 243.81 39.58 243.81 16.95 256.89 16.95 256.89 30.04 245.58 30.04 245.58 39.58 260.78 39.58 260.78 33.92 266.44 33.92 266.44 13.06 260.78 13.06"/>
      </g>
      <path class="cls-1" d="m23.94.03C10.76.76-.76,9.1.04,23.93c.71,13.18,8,21.45,21.19,22.93,13.12,1.47,26.09-9.74,26.61-22.93C48.38,10.59,36.62-.67,23.94.03Zm-7.45,41.91c-1.14-.46-3.33-2.17-3.76-3.12-.48-1.05-.95-1.64-.24-2.4.56-.59,3.03.56,3.63.91,1.07.63,2.76,2.18,3.12,2.93.36.75-1.61,2.14-2.75,1.68Zm2.96-17.8c-1.5,1.07-7.48,3.05-10.69-.21s-1.73-6.89-.43-9.96c.39-.93,1.2-2.19,2.21-3.08.64-.56,3.06-2.65,6.13-3.01,3.06-.36,6.27,3.71,7.27,6.84,1,3.14-3,8.35-4.49,9.42Zm20.38,10.46c-2.28,2-6.7,1.71-8.12,1-1.43-.71-2.92-3.21-2.78-6.63.14-3.42,3.42-5.63,5.06-6.2,1.64-.57,5.49-.22,6.43-.08,1.89.28,2.94,3.52,2.76,5.64-.17,2.07-1.07,4.28-3.35,6.27Z"/>
    </g>
  </g>
</svg>