<?xml version="1.0" encoding="UTF-8"?>
<svg id="Layer_2" data-name="Layer 2" xmlns="http://www.w3.org/2000/svg" viewBox="0 0 313.81 50.01">
  <defs>
    <style>
      .cls-1 {
        stroke-width: 0px;
      }
    </style>
  </defs>
  <g id="Layer_1-2" data-name="Layer 1">
    <g>
      <g>
        <rect class="cls-1" width="14.84" height="50.01"/>
        <rect class="cls-1" x="35.17" width="14.84" height="50.01"/>
        <rect class="cls-1" x="17.59" y="17.59" width="14.84" height="32.43"/>
      </g>
      <g>
        <polygon class="cls-1" points="85.19 35.17 85.19 17.59 70.35 17.59 70.35 35.17 61.55 35.17 61.55 50.01 93.98 50.01 93.98 35.17 85.19 35.17"/>
        <rect class="cls-1" x="61.55" width="32.43" height="14.84"/>
      </g>
      <polygon class="cls-1" points="114.31 0 114.31 8.79 105.52 8.79 105.52 41.22 114.31 41.22 114.31 50.01 146.74 50.01 146.74 35.17 120.36 35.17 120.36 14.84 146.74 14.84 146.74 0 114.31 0"/>
      <g>
        <polygon class="cls-1" points="190.71 35.17 190.71 26.38 181.91 26.38 181.91 17.59 173.12 17.59 173.12 0 158.28 0 158.28 50.01 173.12 50.01 173.12 32.43 175.87 32.43 175.87 41.22 184.66 41.22 184.66 50.01 199.5 50.01 199.5 35.17 190.71 35.17"/>
        <rect class="cls-1" x="184.66" width="14.84" height="14.84"/>
      </g>
      <g>
        <rect class="cls-1" x="211.04" y="35.17" width="41.22" height="14.84"/>
        <rect class="cls-1" x="211.04" y="17.59" width="41.22" height="14.84"/>
        <rect class="cls-1" x="211.04" width="41.22" height="14.84"/>
      </g>
      <polygon class="cls-1" points="305.02 8.79 305.02 0 263.8 0 263.8 50.01 278.64 50.01 278.64 14.84 298.97 14.84 298.97 35.17 281.39 35.17 281.39 50.01 305.02 50.01 305.02 41.22 313.81 41.22 313.81 8.79 305.02 8.79"/>
    </g>
  </g>
</svg>