<?xml version="1.0" encoding="UTF-8"?>
<svg id="Layer_2" data-name="Layer 2" xmlns="http://www.w3.org/2000/svg" viewBox="0 0 201.89 32.17">
  <defs>
    <style>
      .cls-1 {
        fill: #fafaf9;
        stroke-width: 0px;
      }
    </style>
  </defs>
  <g id="Layer_1-2" data-name="Layer 1">
    <g>
      <g>
        <rect class="cls-1" width="9.55" height="32.17"/>
        <rect class="cls-1" x="22.63" width="9.55" height="32.17"/>
        <rect class="cls-1" x="11.31" y="11.31" width="9.55" height="20.86"/>
      </g>
      <g>
        <polygon class="cls-1" points="54.8 22.63 54.8 11.31 45.26 11.31 45.26 22.63 39.6 22.63 39.6 32.17 60.46 32.17 60.46 22.63 54.8 22.63"/>
        <rect class="cls-1" x="39.6" width="20.86" height="9.55"/>
      </g>
      <polygon class="cls-1" points="73.54 0 73.54 5.66 67.89 5.66 67.89 26.52 73.54 26.52 73.54 32.17 94.4 32.17 94.4 22.63 77.43 22.63 77.43 9.55 94.4 9.55 94.4 0 73.54 0"/>
      <g>
        <polygon class="cls-1" points="122.69 22.63 122.69 16.97 117.03 16.97 117.03 11.31 111.37 11.31 111.37 0 101.83 0 101.83 32.17 111.37 32.17 111.37 20.86 113.14 20.86 113.14 26.52 118.8 26.52 118.8 32.17 128.35 32.17 128.35 22.63 122.69 22.63"/>
        <rect class="cls-1" x="118.8" width="9.55" height="9.55"/>
      </g>
      <g>
        <rect class="cls-1" x="135.77" y="22.63" width="26.52" height="9.55"/>
        <rect class="cls-1" x="135.77" y="11.31" width="26.52" height="9.55"/>
        <rect class="cls-1" x="135.77" width="26.52" height="9.55"/>
      </g>
      <polygon class="cls-1" points="196.23 5.66 196.23 0 169.71 0 169.71 32.17 179.26 32.17 179.26 9.55 192.34 9.55 192.34 22.63 181.03 22.63 181.03 32.17 196.23 32.17 196.23 26.52 201.89 26.52 201.89 5.66 196.23 5.66"/>
    </g>
  </g>
</svg>